<svg height="496pt" viewBox="0 0 496 496" width="496pt" xmlns="http://www.w3.org/2000/svg"><path d="m88 144h320v208h-320zm0 0" fill="#bc8f6f"/><path d="m104 160h288v176h-288zm0 0" fill="#cb9e78"/><path d="m440 488c-17.671875 0-32-14.328125-32-32v-8h64v8c0 17.671875-14.328125 32-32 32zm0 0" fill="#bc8f6f"/><path d="m424 416h32v32h-32zm0 0" fill="#cb9e78"/><path d="m472 48h-64v-8c0-17.671875 14.328125-32 32-32s32 14.328125 32 32zm0 0" fill="#bc8f6f"/><path d="m424 48h32v32h-32zm0 0" fill="#cb9e78"/><path d="m408 112h64v272h-64zm0 0" fill="#cb9e78"/><g fill="#bc8f6f"><path d="m392 80h96v32h-96zm0 0"/><path d="m392 384h96v32h-96zm0 0"/><path d="m56 488c-17.671875 0-32-14.328125-32-32v-8h64v8c0 17.671875-14.328125 32-32 32zm0 0"/></g><path d="m40 416h32v32h-32zm0 0" fill="#cb9e78"/><path d="m88 48h-64v-8c0-17.671875 14.328125-32 32-32s32 14.328125 32 32zm0 0" fill="#bc8f6f"/><path d="m40 48h32v32h-32zm0 0" fill="#cb9e78"/><path d="m24 112h64v272h-64zm0 0" fill="#cb9e78"/><path d="m8 80h96v32h-96zm0 0" fill="#bc8f6f"/><path d="m8 384h96v32h-96zm0 0" fill="#bc8f6f"/><path d="m104 120h-96c-4.425781 0-8-3.574219-8-8v-32c0-4.425781 3.574219-8 8-8h96c4.425781 0 8 3.574219 8 8v32c0 4.425781-3.574219 8-8 8zm-88-16h80v-16h-80zm0 0"/><path d="m88 56h-64c-4.425781 0-8-3.574219-8-8v-8c0-22.054688 17.945312-40 40-40s40 17.945312 40 40v8c0 4.425781-3.574219 8-8 8zm-56-16h48c0-13.230469-10.769531-24-24-24s-24 10.769531-24 24zm0 0"/><path d="m104 424h-96c-4.425781 0-8-3.574219-8-8v-32c0-4.425781 3.574219-8 8-8h96c4.425781 0 8 3.574219 8 8v32c0 4.425781-3.574219 8-8 8zm-88-16h80v-16h-80zm0 0"/><path d="m56 496c-22.054688 0-40-17.945312-40-40v-8c0-4.425781 3.574219-8 8-8h64c4.425781 0 8 3.574219 8 8v8c0 22.054688-17.945312 40-40 40zm-24-40c0 13.230469 10.769531 24 24 24s24-10.769531 24-24zm0 0"/><path d="m16 112h16v272h-16zm0 0"/><path d="m80 112h16v272h-16zm0 0"/><path d="m32 48h16v32h-16zm0 0"/><path d="m64 48h16v32h-16zm0 0"/><path d="m32 416h16v32h-16zm0 0"/><path d="m64 416h16v32h-16zm0 0"/><path d="m488 120h-96c-4.425781 0-8-3.574219-8-8v-32c0-4.425781 3.574219-8 8-8h96c4.425781 0 8 3.574219 8 8v32c0 4.425781-3.574219 8-8 8zm-88-16h80v-16h-80zm0 0"/><path d="m472 56h-64c-4.425781 0-8-3.574219-8-8v-8c0-22.054688 17.945312-40 40-40s40 17.945312 40 40v8c0 4.425781-3.574219 8-8 8zm-56-16h48c0-13.230469-10.769531-24-24-24s-24 10.769531-24 24zm0 0"/><path d="m488 424h-96c-4.425781 0-8-3.574219-8-8v-32c0-4.425781 3.574219-8 8-8h96c4.425781 0 8 3.574219 8 8v32c0 4.425781-3.574219 8-8 8zm-88-16h80v-16h-80zm0 0"/><path d="m440 496c-22.054688 0-40-17.945312-40-40v-8c0-4.425781 3.574219-8 8-8h64c4.425781 0 8 3.574219 8 8v8c0 22.054688-17.945312 40-40 40zm-24-40c0 13.230469 10.769531 24 24 24s24-10.769531 24-24zm0 0"/><path d="m400 112h16v272h-16zm0 0"/><path d="m464 112h16v272h-16zm0 0"/><path d="m416 48h16v32h-16zm0 0"/><path d="m448 48h16v32h-16zm0 0"/><path d="m416 416h16v32h-16zm0 0"/><path d="m448 416h16v32h-16zm0 0"/><path d="m88 136h320v16h-320zm0 0"/><path d="m88 344h320v16h-320zm0 0"/><path d="m112 168h112v16h-112zm0 0"/><path d="m112 200h112v16h-112zm0 0"/><path d="m112 232h112v16h-112zm0 0"/><path d="m112 264h112v16h-112zm0 0"/><path d="m272 216h112v16h-112zm0 0"/><path d="m272 248h112v16h-112zm0 0"/><path d="m272 280h112v16h-112zm0 0"/><path d="m272 312h112v16h-112zm0 0"/></svg>