<?xml version="1.0" encoding="iso-8859-1"?>
<!-- Generator: Adobe Illustrator 19.0.0, SVG Export Plug-In . SVG Version: 6.00 Build 0)  -->
<svg version="1.1" id="Layer_1" xmlns="http://www.w3.org/2000/svg" xmlns:xlink="http://www.w3.org/1999/xlink" x="0px" y="0px"
	 viewBox="0 0 512 512" style="enable-background:new 0 0 512 512;" xml:space="preserve">
<path style="fill:#9B8273;" d="M423.724,512H88.276c-4.875,0-8.828-3.953-8.828-8.828V17.655c0-4.875,3.953-8.828,8.828-8.828
	h335.448c4.875,0,8.828,3.953,8.828,8.828v485.517C432.552,508.047,428.599,512,423.724,512z"/>
<path style="fill:#FFD782;" d="M353.103,186.321c0-4.742-3.198-8.979-7.281-9.646c-2.655-0.427-5.255,0.271-7.263,1.974
	c-1.978,1.681-3.112,4.134-3.112,6.729v70.745c0,4.875-3.953,8.828-8.828,8.828s-8.828-3.953-8.828-8.828v-70.745v-25.539
	c0-4.742-3.198-8.979-7.281-9.646c-2.681-0.439-5.255,0.267-7.263,1.974c-1.978,1.681-3.112,4.134-3.112,6.729v88.401
	c0,4.875-3.953,8.828-8.828,8.828s-8.828-3.953-8.828-8.828v-88.401v-16.712c0-4.742-3.198-8.979-7.281-9.646
	c-2.681-0.427-5.255,0.271-7.263,1.974c-1.978,1.681-3.112,4.134-3.112,6.729v26.483v79.573c0,4.875-3.953,8.828-8.828,8.828
	c-4.875,0-8.828-3.953-8.828-8.828v-79.573c0-2.595-1.133-5.047-3.112-6.729c-2.008-1.703-4.577-2.388-7.263-1.974
	c-4.082,0.668-7.281,4.905-7.281,9.646v78.63v44.138c0,4.875-3.953,8.828-8.828,8.828s-8.828-3.953-8.828-8.828v-53.09
	c0-2.595-1.133-5.047-3.112-6.729c-1.621-1.375-3.608-2.099-5.725-2.099c-0.509,0-1.022,0.043-1.539,0.125
	c-4.082,0.668-7.281,4.905-7.281,9.646v69.802c0,43.806,35.642,79.448,79.448,79.448h35.31c24.337,0,44.138-19.801,44.138-44.138
	V186.321H353.103z"/>
<path style="fill:#876E64;" d="M123.586,494.345L123.586,494.345c-4.875,0-8.828-3.953-8.828-8.828V35.31
	c0-4.875,3.953-8.828,8.828-8.828l0,0c4.875,0,8.828,3.953,8.828,8.828v450.207C132.414,490.392,128.461,494.345,123.586,494.345z"
	/>
<path style="fill:#FFD782;" d="M196.172,101.356l-19.62-13.08l-19.62,13.08c-2.933,1.955-6.862-0.147-6.862-3.672V8.828
	c0-4.875,3.953-8.828,8.828-8.828h35.31c4.875,0,8.828,3.953,8.828,8.828v88.856C203.034,101.209,199.105,103.311,196.172,101.356z"
	/>
<g>
</g>
<g>
</g>
<g>
</g>
<g>
</g>
<g>
</g>
<g>
</g>
<g>
</g>
<g>
</g>
<g>
</g>
<g>
</g>
<g>
</g>
<g>
</g>
<g>
</g>
<g>
</g>
<g>
</g>
</svg>
